<?xml version="1.0" standalone="no"?>
<!DOCTYPE svg PUBLIC "-//W3C//DTD SVG 20010904//EN"
 "http://www.w3.org/TR/2001/REC-SVG-20010904/DTD/svg10.dtd">
<svg version="1.0" xmlns="http://www.w3.org/2000/svg"
 width="711.000000pt" height="711.000000pt" viewBox="0 0 711.000000 711.000000"
 preserveAspectRatio="xMidYMid meet">

<g transform="translate(0.000000,711.000000) scale(0.100000,-0.100000)"
fill="#262626" stroke="none">
<path d="M2266 7097 c-11 -7 -44 -27 -73 -45 -29 -18 -122 -100 -206 -182 -83
-82 -159 -150 -169 -150 -9 0 -40 -16 -69 -35 -30 -19 -63 -35 -74 -35 -32 0
-80 58 -109 132 -14 36 -26 74 -26 82 0 9 -7 16 -15 16 -26 0 -18 -83 15 -167
37 -92 37 -103 2 -125 -15 -10 -35 -23 -45 -30 -15 -11 -22 -8 -50 24 -18 21
-60 58 -94 82 -34 25 -73 63 -87 83 -40 64 -95 118 -107 106 -10 -10 -7 -31
36 -208 21 -84 55 -243 55 -254 0 -4 -9 -20 -21 -35 -17 -21 -24 -24 -39 -16
-37 20 -150 213 -150 256 0 9 -7 14 -18 12 -46 -9 -1 -194 70 -288 41 -55 45
-67 25 -94 -11 -15 -44 -22 -168 -37 -85 -10 -178 -18 -206 -19 -45 0 -53 -3
-53 -19 0 -23 20 -28 210 -49 144 -17 145 -17 148 -43 l3 -27 -84 5 c-100 7
-140 -1 -135 -24 3 -18 80 -42 131 -43 37 0 45 -25 18 -60 -11 -16 -21 -32
-21 -34 0 -12 -122 -256 -131 -261 -12 -8 -12 -42 0 -50 6 -3 22 7 36 22 l26
28 -7 -30 c-13 -49 -10 -80 6 -80 9 0 20 17 28 40 37 117 70 112 39 -6 -7 -25
-24 -62 -40 -82 -31 -41 -33 -52 -12 -61 12 -4 -9 -34 -85 -122 -55 -64 -112
-138 -125 -165 -26 -50 -32 -89 -16 -89 12 0 100 75 216 183 50 47 93 83 98
80 16 -10 6 -72 -16 -100 -31 -37 -81 -114 -90 -135 -12 -34 14 -29 59 11 26
22 50 39 53 36 4 -2 6 -20 5 -40 -4 -40 16 -56 41 -35 12 10 14 1 14 -62 0
-40 7 -99 16 -131 8 -32 15 -72 15 -90 0 -36 35 -101 50 -92 6 3 10 12 10 19
0 7 6 21 14 31 12 17 15 15 35 -31 12 -27 33 -58 46 -69 l25 -21 -14 -74 c-8
-41 -24 -98 -36 -126 l-21 -51 -80 -6 c-140 -11 -170 -43 -188 -196 -6 -53
-12 -112 -14 -131 -2 -31 -7 -37 -59 -63 -33 -16 -104 -37 -165 -49 -110 -21
-158 -39 -181 -67 -40 -50 -101 -151 -112 -186 -7 -22 -21 -54 -32 -72 -27
-45 -16 -92 38 -174 56 -85 82 -145 90 -212 4 -28 18 -85 31 -126 32 -102 32
-101 -27 -94 -67 8 -127 -16 -178 -71 -48 -52 -62 -96 -62 -192 0 -88 18 -141
69 -205 24 -30 44 -69 50 -97 6 -26 24 -96 41 -157 17 -60 40 -148 51 -195 20
-84 46 -166 60 -185 6 -10 93 -209 151 -350 53 -129 100 -219 155 -302 31 -46
59 -83 63 -83 3 0 21 -17 38 -39 l31 -38 -212 5 c-185 4 -226 2 -322 -16 -60
-12 -135 -24 -165 -27 -117 -13 -219 -42 -252 -72 -15 -13 -18 -33 -18 -107
l1 -91 19 24 c22 26 26 71 8 89 -9 9 -9 18 0 37 18 39 98 69 257 94 57 8 61 8
80 -15 24 -28 143 -84 179 -84 63 0 178 -63 212 -116 14 -20 14 -29 4 -53 -19
-48 -51 -54 -320 -58 -407 -8 -385 -6 -385 -23 0 -10 7 -14 20 -11 11 2 157 5
325 6 294 1 306 2 347 23 23 12 47 31 53 42 41 77 -73 185 -230 219 -61 13
-170 59 -170 72 0 17 49 19 336 17 l292 -3 50 -42 c28 -24 55 -43 61 -43 20 0
22 -22 4 -42 -15 -17 -18 -37 -18 -122 0 -93 3 -104 27 -143 15 -23 35 -44 45
-47 10 -3 70 -6 133 -7 105 -1 120 1 175 26 100 44 137 93 137 174 -1 47 -1
47 31 44 18 -2 113 -10 212 -18 100 -9 225 -24 279 -35 54 -11 128 -20 164
-20 37 -1 87 -5 112 -11 143 -31 1074 -31 1320 0 41 5 128 12 193 16 103 6
117 5 117 -9 0 -9 4 -24 9 -34 5 -9 17 -39 27 -66 27 -71 58 -90 157 -96 166
-11 261 16 310 87 31 44 34 86 12 139 -15 35 -14 37 13 57 15 11 60 53 99 94
46 46 81 73 95 74 13 0 32 4 43 8 17 7 16 9 -12 15 -18 4 -33 10 -33 13 0 2
27 49 60 102 33 54 60 101 60 105 0 4 18 34 41 67 53 78 165 298 236 464 30
72 58 135 62 140 4 6 23 48 41 95 46 120 102 238 133 283 61 89 58 254 -5 350
-19 29 -37 60 -41 70 -11 30 -31 29 -142 -2 -112 -33 -395 -78 -553 -90 -90
-6 -93 -6 -88 14 3 11 6 43 6 71 0 28 6 59 14 70 14 19 15 19 36 -3 20 -22 50
-31 50 -15 0 4 -9 31 -20 61 -21 53 -20 66 5 131 7 19 18 54 24 78 10 35 16
42 36 42 30 0 30 3 14 168 -6 62 -9 116 -6 118 3 3 14 1 25 -5 46 -24 27 31
-33 99 -13 14 -38 53 -56 88 -21 40 -54 81 -87 109 -66 56 -88 96 -73 130 19
42 15 44 -84 42 -53 -1 -100 2 -105 7 -7 7 -4 25 7 52 9 23 13 45 10 48 -10
10 -50 -20 -99 -72 -23 -25 -51 -50 -61 -56 -15 -8 -18 -5 -15 18 2 15 -2 29
-8 31 -19 7 -109 -72 -143 -126 -18 -28 -36 -51 -40 -52 -9 -1 -34 -6 -69 -14
-37 -8 -48 7 -22 30 11 10 20 22 20 27 0 13 -45 9 -86 -8 -22 -9 -68 -22 -104
-28 -57 -11 -83 -12 -152 -7 -10 0 -18 7 -18 15 0 13 270 284 414 417 33 30
83 78 112 107 48 48 56 52 99 52 51 0 83 13 103 42 7 10 19 18 27 18 7 0 22
11 33 25 11 14 24 25 30 25 18 0 62 61 62 86 0 14 -7 38 -15 54 -14 27 -13 31
20 82 42 63 43 83 10 132 -34 50 -65 112 -65 129 0 11 24 17 90 24 70 8 105
18 156 44 138 71 256 197 366 394 168 297 177 317 158 340 -10 12 -27 2 -103
-57 -51 -39 -150 -126 -222 -193 -71 -67 -146 -133 -166 -146 -20 -13 -93 -79
-163 -146 -71 -68 -132 -123 -136 -123 -16 0 -51 218 -65 410 -6 90 -18 184
-36 290 -11 66 -13 84 -27 199 -4 37 -12 66 -19 69 -7 2 -13 -3 -13 -10 0 -25
-68 -221 -103 -298 -54 -119 -64 -150 -71 -230 -7 -78 6 -164 41 -260 20 -56
91 -165 132 -204 17 -17 31 -33 31 -37 0 -4 -21 -19 -46 -33 -36 -20 -60 -26
-109 -26 -53 0 -68 -4 -94 -25 -16 -14 -33 -34 -36 -44 -3 -11 -18 -24 -34
-31 -33 -13 -54 -55 -76 -153 -23 -99 -61 -173 -130 -247 -33 -36 -87 -99
-120 -140 -66 -83 -308 -330 -368 -375 l-38 -28 -27 27 c-35 33 -69 34 -81 2
-10 -25 -90 -76 -178 -113 -64 -26 -115 -61 -108 -73 7 -12 -51 -77 -83 -92
-17 -9 -29 -25 -34 -48 -5 -19 -13 -43 -19 -53 -11 -21 -4 -37 17 -37 17 0 19
-46 2 -56 -17 -11 -39 27 -36 61 2 21 -3 33 -16 40 -10 6 -42 51 -72 100 -89
150 -122 193 -166 216 -90 46 -233 72 -403 73 -83 1 -118 6 -142 19 -45 24
-73 64 -73 104 0 44 -23 99 -49 115 -26 16 -29 43 -3 33 50 -21 222 -55 280
-55 95 0 211 41 266 95 130 126 235 364 295 666 21 103 56 278 72 354 4 22 8
73 9 114 0 41 2 72 5 70 2 -3 7 -48 10 -100 3 -52 11 -121 16 -154 6 -33 13
-84 16 -112 3 -33 10 -53 18 -53 17 0 25 46 25 136 0 41 3 74 7 74 3 0 14 -7
24 -16 28 -25 39 -8 39 64 0 37 3 77 6 90 6 21 8 20 25 -17 10 -23 35 -109 56
-191 24 -93 43 -150 50 -150 7 0 13 10 13 23 0 34 -28 198 -39 237 -6 19 -11
67 -11 107 0 40 -6 97 -14 127 -8 30 -18 76 -21 103 l-7 48 41 -40 c23 -22 52
-54 64 -72 24 -35 44 -42 54 -18 8 22 -76 189 -129 258 -30 37 -48 71 -52 98
-4 23 -5 43 -3 45 2 3 121 -96 219 -183 16 -14 18 -14 24 1 7 18 -44 109 -108
189 -41 53 -48 73 -20 62 54 -23 193 -67 198 -63 15 16 -24 43 -166 114 -128
63 -160 83 -160 99 0 11 -13 35 -30 53 -16 18 -30 35 -30 38 0 3 45 2 99 -2
107 -7 134 -3 125 19 -5 14 -56 32 -159 56 -90 21 -129 40 -148 72 -9 17 -17
34 -17 39 0 15 137 50 194 50 40 0 56 4 56 13 0 22 -70 37 -173 37 l-95 0 -5
28 c-14 70 -17 65 58 79 138 25 191 33 241 33 61 0 89 21 54 40 -15 8 -78 9
-221 4 -109 -4 -199 -5 -199 -2 0 3 35 33 79 67 77 59 161 148 161 170 0 13
-22 15 -36 2 -5 -5 -29 -16 -54 -24 -25 -9 -116 -43 -203 -77 -149 -57 -160
-60 -193 -48 -19 6 -33 17 -31 23 2 5 33 33 70 60 80 60 127 112 120 131 -3 8
-7 14 -10 14 -13 0 -63 -32 -63 -40 0 -6 -9 -10 -21 -10 -26 0 -54 -15 -106
-56 -23 -19 -46 -34 -51 -34 -5 0 -26 -13 -47 -30 -42 -33 -65 -31 -38 5 10
12 45 60 78 105 33 45 78 103 100 129 43 49 85 107 85 116 0 10 -125 4 -144
-8z m-223 -985 c28 -28 37 -42 32 -59 -4 -16 1 -25 14 -33 20 -10 111 -188
171 -335 18 -44 37 -90 43 -102 5 -12 7 -29 3 -39 -4 -10 0 -24 9 -34 14 -16
11 -26 -36 -115 -39 -76 -47 -100 -37 -106 23 -15 32 -4 59 67 27 70 46 87 69
59 10 -12 9 -18 -10 -33 -19 -16 -22 -24 -16 -55 16 -86 122 -75 147 15 13 51
-7 103 -46 118 -30 11 -34 40 -5 40 29 0 96 -71 110 -116 21 -67 34 -94 47
-94 19 0 16 -72 -7 -165 -11 -44 -32 -145 -46 -224 -62 -351 -146 -563 -279
-708 -58 -64 -99 -87 -189 -108 -50 -12 -80 -13 -133 -5 -101 14 -212 46 -234
66 -64 58 -251 336 -321 479 -29 58 -64 163 -74 220 -7 42 -29 75 -49 75 -7 0
-23 8 -35 18 -20 16 -22 26 -22 125 0 82 4 114 16 132 19 28 38 32 56 10 16
-19 46 -19 53 0 4 8 3 52 0 98 -4 62 -2 90 9 110 l14 28 32 -45 c25 -34 43
-48 74 -56 59 -16 63 -6 40 91 -37 153 -37 149 1 236 33 74 55 181 48 241 -4
32 8 26 58 -29 l44 -50 -30 -32 c-16 -18 -45 -53 -63 -80 -48 -67 -29 -80 41
-27 46 35 60 40 105 40 52 0 52 0 66 -41 16 -51 31 -52 38 -2 l5 38 60 5 c57
5 60 7 63 32 4 33 -24 48 -87 48 l-38 0 -6 53 c-4 28 -10 98 -13 153 -7 99 -6
102 15 109 29 9 40 -2 108 -103 88 -133 210 -249 235 -224 13 13 16 7 -64 107
-51 64 -138 219 -138 246 0 21 54 -2 93 -39z m-365 -55 c12 0 22 -4 22 -11 1
-6 7 -47 15 -91 17 -91 19 -135 7 -135 -15 0 -59 54 -82 99 -12 24 -24 68 -27
98 -6 55 -6 55 18 47 13 -4 34 -8 47 -7z m646 -134 c25 -45 56 -123 48 -123
-23 1 -70 94 -87 175 l-7 30 15 -27 c9 -15 22 -40 31 -55z m1920 -233 c25
-188 33 -262 46 -405 7 -71 20 -176 31 -233 22 -121 23 -132 7 -132 -6 0 -20
-7 -30 -17 -17 -15 -18 -15 -18 3 0 11 -16 36 -36 55 -63 60 -128 166 -158
256 -10 31 -18 88 -19 140 -2 78 2 97 30 168 17 44 41 98 51 120 11 22 30 75
43 117 13 42 27 71 30 65 4 -7 14 -68 23 -137z m-1894 -11 c9 -16 8 -25 -6
-40 -17 -19 -18 -19 -31 12 -7 17 -13 35 -13 40 0 18 40 8 50 -12z m122 -68
c20 -47 35 -88 32 -92 -2 -4 -22 1 -43 12 -35 17 -40 24 -51 71 -6 29 -13 63
-17 76 -5 20 -2 23 18 20 19 -2 31 -20 61 -87z m56 69 c18 -11 37 -32 42 -46
12 -31 13 -184 1 -184 -4 0 -14 21 -21 48 -8 26 -26 77 -42 114 -40 96 -38
103 20 68z m2584 -153 c-5 -7 -40 -70 -77 -142 -140 -270 -288 -437 -429 -487
-96 -34 -217 -32 -224 4 -3 14 246 260 315 311 33 25 136 114 227 198 34 30
68 61 76 67 8 7 38 30 65 52 38 31 51 37 53 25 2 -9 -1 -21 -6 -28z m-2472
-98 c16 -58 11 -76 -16 -51 -15 15 -19 28 -16 56 6 48 19 46 32 -5z m1700
-564 c0 -8 -7 -15 -15 -15 -8 0 -15 7 -15 15 0 8 7 15 15 15 8 0 15 -7 15 -15z
m-73 -41 c2 -5 -13 -27 -33 -48 -31 -34 -35 -42 -25 -59 18 -28 9 -29 -23 -3
-18 14 -30 33 -31 52 -2 26 3 32 44 51 47 22 63 24 68 7z m108 -66 c5 -13 2
-18 -9 -18 -22 0 -20 -27 2 -33 9 -3 -4 -4 -31 -4 -36 1 -46 5 -42 15 3 8 5
33 5 57 0 40 2 44 28 47 22 2 28 -2 33 -22 4 -14 10 -33 14 -42z m-286 28 c23
-13 23 -13 -16 -19 -41 -7 -87 -46 -96 -82 -3 -15 -5 -12 -6 8 -1 33 32 85 63
97 28 11 27 11 55 -4z m181 -46 c0 -11 -4 -20 -9 -20 -14 0 -23 18 -16 30 10
17 25 11 25 -10z m-114 -42 c61 -48 71 -78 26 -78 -16 0 -37 -7 -48 -15 -20
-15 -81 -20 -100 -7 -15 9 -34 47 -34 66 0 26 50 76 77 76 14 0 48 -18 79 -42z
m-208 -36 c2 -23 16 -43 55 -77 28 -25 59 -45 68 -45 17 0 27 -32 32 -102 1
-21 11 -46 23 -60 12 -13 25 -33 28 -44 7 -22 34 -36 90 -49 27 -6 28 -7 13
-23 -24 -23 -139 -22 -190 2 -21 10 -40 16 -43 13 -11 -10 8 -29 44 -44 l36
-15 -80 -76 c-382 -368 -488 -467 -503 -467 -9 0 -20 -10 -26 -22 -6 -13 -19
-23 -30 -23 -12 0 -25 -4 -31 -10 -14 -14 -27 0 -48 47 -22 49 -41 46 -32 -5
5 -33 -6 -62 -24 -62 -4 0 -10 22 -14 49 -5 37 -15 58 -38 83 -31 32 -33 32
-36 11 -4 -27 -30 -31 -39 -7 -4 12 3 24 22 38 79 57 261 240 376 377 35 41
95 111 133 155 37 43 75 94 84 112 9 17 22 32 29 32 9 0 13 15 13 48 0 122 78
266 88 164z m425 -1 c60 -26 73 -50 51 -93 -48 -96 -190 -147 -270 -98 -43 27
-52 55 -26 89 18 24 25 26 84 23 49 -2 68 1 78 13 11 13 9 15 -9 15 -28 0 -28
34 1 54 29 20 37 20 91 -3z m-2983 -121 c0 -16 107 -183 188 -293 48 -65 85
-124 83 -130 -92 -303 -99 -346 -49 -300 25 22 49 8 62 -35 7 -24 3 -41 -18
-85 -14 -31 -26 -71 -26 -89 0 -57 -12 -110 -26 -115 -16 -6 -99 63 -195 162
-53 53 -73 83 -90 130 -48 137 -65 172 -112 233 -30 38 -47 70 -44 80 3 10 26
76 52 147 25 72 49 142 52 158 3 17 12 27 23 27 19 0 52 58 66 113 5 22 9 25
20 16 8 -6 14 -15 14 -19z m3018 -85 c17 -36 15 -59 -5 -78 -21 -18 -41 -21
-138 -19 -62 2 -75 6 -105 30 -22 19 -31 34 -27 44 5 15 11 15 53 2 42 -12 54
-12 99 0 27 9 59 22 70 30 28 22 40 20 53 -9z m-83 -135 c8 -12 -61 -12 -90 0
-15 6 -6 9 32 9 28 1 55 -3 58 -9z m10 -572 c17 -4 60 -5 96 -1 l67 6 -5 -25
c-7 -36 21 -84 88 -150 32 -31 68 -76 80 -100 12 -24 30 -55 41 -71 16 -22 20
-47 23 -120 1 -50 6 -118 10 -149 7 -54 6 -58 -13 -58 -21 0 -29 -13 -42 -75
-5 -22 -16 -60 -25 -85 -9 -25 -17 -63 -19 -85 -1 -32 -6 -41 -22 -43 -26 -4
-53 -78 -51 -145 1 -57 -14 -77 -39 -53 -12 12 -25 15 -43 11 -47 -12 -61 -33
-61 -94 -1 -33 -7 -64 -15 -75 -8 -11 -15 -28 -15 -38 0 -26 -6 -23 -62 26
-28 24 -71 55 -96 67 -24 13 -54 36 -65 51 -12 16 -30 28 -43 28 -23 0 -37 26
-49 90 -4 19 -13 45 -21 57 -16 26 -19 83 -4 83 15 0 12 36 -5 50 -26 21 -18
66 36 218 10 29 19 64 19 77 0 31 3 31 35 3 22 -19 25 -30 25 -86 0 -75 10
-77 55 -13 23 33 30 54 30 90 l0 47 30 -9 c42 -14 67 -25 87 -39 9 -7 20 -9
24 -6 13 14 -7 57 -51 111 -25 31 -45 58 -45 62 0 3 11 3 24 -1 24 -6 41 13
28 32 -16 22 -66 54 -86 54 -11 0 -32 9 -46 20 -30 24 -50 25 -50 5 0 -9 19
-28 43 -43 34 -22 41 -32 39 -54 -2 -18 7 -37 29 -62 45 -52 29 -56 -25 -6
-50 47 -64 41 -52 -23 3 -17 8 -50 11 -72 5 -35 4 -38 -7 -21 -7 11 -21 27
-30 37 -27 29 -38 56 -38 96 0 21 -7 47 -15 57 -8 11 -15 28 -15 37 0 9 -14
29 -32 44 -31 26 -37 27 -113 23 -122 -8 -175 -48 -175 -136 0 -47 33 -108 63
-118 28 -9 33 4 11 34 -42 59 -48 79 -34 112 20 48 80 82 80 45 0 -8 -8 -15
-18 -15 -21 0 -42 -38 -42 -74 0 -13 13 -38 29 -55 31 -33 74 -41 123 -22 14
5 37 11 54 13 27 3 29 1 26 -27 -3 -27 -22 -89 -42 -140 -5 -11 -11 -33 -15
-50 -4 -16 -11 -32 -16 -36 -5 -3 -10 -34 -12 -69 -2 -56 -5 -65 -22 -68 -22
-4 -72 -52 -67 -64 5 -19 -28 -77 -56 -97 -41 -28 -84 -27 -135 7 -23 15 -51
29 -61 32 -14 4 -3 14 45 39 76 39 116 80 148 150 21 45 23 54 11 76 -20 37
-94 49 -214 36 -52 -6 -121 -11 -154 -11 -32 0 -63 -5 -70 -12 -15 -15 -16
-67 -2 -104 18 -46 86 -118 134 -142 57 -29 52 -47 -20 -68 -86 -25 -141 4
-174 91 -5 14 -16 25 -23 22 -13 -4 -13 -25 -2 -94 6 -35 5 -43 -7 -43 -9 0
-21 7 -28 15 -7 8 -22 15 -34 15 -11 0 -26 4 -33 8 -19 12 -26 58 -12 84 40
70 53 171 24 182 -15 6 -18 -2 -30 -79 -9 -61 -35 -104 -65 -107 -21 -3 -26
-10 -35 -53 -6 -27 -19 -74 -29 -104 -15 -44 -16 -60 -7 -91 16 -52 14 -69 -5
-42 -8 12 -23 22 -32 22 -10 0 -26 14 -35 30 -12 20 -26 30 -43 30 -19 0 -24
5 -24 27 0 32 -59 153 -78 161 -7 2 -18 0 -25 -7 -20 -20 -23 -12 -19 47 4 51
-1 67 -37 146 -23 49 -41 93 -41 99 0 5 -7 15 -16 21 -14 11 -14 27 -3 157 7
79 12 177 12 217 -2 64 0 72 17 72 10 0 27 15 39 33 11 17 29 38 40 45 12 7
21 21 21 33 0 16 20 29 93 63 50 24 116 60 146 80 48 33 56 35 64 20 5 -9 25
-31 45 -50 36 -33 62 -44 62 -24 0 6 7 10 15 10 26 0 38 -90 19 -149 -4 -11
-8 -10 -24 4 -10 9 -39 20 -62 22 -35 4 -47 1 -62 -15 -20 -23 -14 -42 14 -42
31 0 28 -23 -7 -56 -23 -22 -33 -40 -33 -61 0 -42 9 -46 42 -18 16 14 36 26
44 26 31 3 34 4 34 14 -1 6 -19 9 -41 8 -34 -2 -39 0 -29 13 7 7 23 14 35 14
35 0 37 24 5 59 -50 54 1 49 59 -6 l26 -24 18 41 c21 46 49 62 117 66 25 1 53
3 64 4 10 1 20 10 23 20 5 18 7 18 41 -5 25 -17 43 -22 63 -18 16 3 35 0 44
-7 11 -9 19 -8 37 4 12 9 41 16 63 16 23 0 50 7 61 15 10 8 25 15 33 15 11 0
11 -4 -2 -18 -21 -23 -22 -42 -2 -42 18 0 18 -1 0 -36 -8 -16 -15 -34 -15 -41
0 -23 41 -34 125 -32 77 1 88 -1 119 -24 36 -28 46 -26 46 9 0 14 -15 35 -39
56 -54 46 -61 86 -26 141 31 48 65 87 76 87 3 0 9 -9 12 -20 8 -32 38 -23 97
29 50 45 55 47 60 28 3 -12 18 -24 35 -29z m-337 -179 c2 -12 -8 -18 -37 -23
-45 -7 -71 0 -71 19 0 26 103 29 108 4z m72 -235 c10 -29 10 -41 -1 -60 -18
-35 -27 -30 -32 24 -2 26 -8 58 -12 71 -7 21 -6 22 13 12 11 -6 26 -27 32 -47z
m-3472 -455 c54 -17 138 -46 187 -64 118 -43 342 -110 430 -129 39 -8 88 -20
110 -26 89 -24 510 -73 810 -94 171 -12 203 -12 222 0 18 12 70 14 265 11 134
-3 250 -7 259 -11 30 -13 29 -53 -2 -89 -54 -61 -51 -139 8 -199 40 -41 75
-49 109 -24 16 13 21 12 36 -1 29 -26 92 -28 138 -4 23 12 59 21 85 21 24 0
47 5 50 10 14 23 25 7 25 -36 0 -60 24 -109 69 -140 33 -22 34 -24 11 -23 -14
0 -47 5 -75 10 -27 5 -214 14 -415 18 -246 6 -391 14 -445 24 -56 10 -127 13
-240 11 -96 -2 -184 1 -220 8 -33 6 -98 13 -145 14 -134 4 -188 11 -295 37
-55 13 -161 32 -235 42 -178 23 -312 47 -435 79 -143 36 -280 66 -304 66 -65
0 -229 95 -272 158 -20 30 -25 50 -27 124 -4 82 -3 88 16 88 15 0 21 9 26 39
3 22 17 53 31 70 42 49 93 52 223 10z m3407 -162 c26 -22 49 -96 36 -114 -21
-28 -103 -43 -145 -27 -14 5 -13 9 4 34 11 15 20 37 20 48 0 11 3 34 6 51 8
39 40 42 79 8z m-338 -77 c14 -11 33 -20 42 -20 23 0 60 -36 65 -63 2 -12 13
-63 25 -113 25 -109 26 -133 6 -181 -43 -102 -126 -155 -249 -157 -110 -2
-172 40 -183 123 -4 29 3 57 32 122 35 79 65 187 65 236 0 18 9 23 53 33 28 6
63 17 77 25 33 19 37 18 67 -5z m1696 -22 c51 -64 69 -105 75 -175 8 -107 -40
-197 -127 -236 -111 -49 -262 -73 -653 -102 -183 -14 -344 -27 -358 -30 -50
-10 -675 -17 -665 -8 16 16 106 46 113 38 4 -4 7 -12 7 -17 0 -18 19 -19 40
-3 14 10 16 17 9 22 -17 12 -11 42 20 105 40 81 43 123 16 224 -27 100 -25
104 58 104 54 0 60 -6 40 -43 -6 -12 -17 -52 -24 -89 -21 -108 5 -172 75 -184
20 -3 58 -20 84 -37 61 -38 98 -39 135 -3 27 25 30 26 63 12 23 -10 47 -12 74
-7 90 17 114 55 107 176 -3 72 -2 82 17 99 12 11 21 25 21 33 0 10 6 12 21 8
12 -4 27 -1 37 8 9 8 35 17 57 20 22 3 110 17 195 30 85 14 196 30 246 37 51
6 129 22 175 35 46 13 89 24 96 24 6 1 27 -18 46 -41z m-2086 -8 c45 -33 73
-94 73 -160 0 -69 -65 -159 -104 -144 -6 2 -11 23 -11 47 0 31 -4 42 -15 42
-10 0 -15 -10 -15 -27 -1 -35 -34 -80 -69 -92 -57 -21 -114 31 -115 104 l-1
35 33 -39 c25 -29 38 -38 51 -33 13 5 16 13 12 30 -4 12 -8 60 -10 107 -5 99
10 146 46 153 59 11 85 6 125 -23z m1223 -50 c0 -5 -9 -10 -21 -10 -11 0 -17
5 -14 10 3 6 13 10 21 10 8 0 14 -4 14 -10z m-406 -55 c12 -19 22 -24 39 -20
36 9 151 -61 218 -133 33 -34 59 -69 59 -77 0 -22 -50 -55 -84 -55 -49 0 -69
20 -70 70 -1 60 -20 60 -35 -1 -7 -28 -23 -62 -35 -76 -47 -54 -120 1 -114 85
4 50 -25 52 -32 2 -4 -28 -10 -36 -31 -38 -16 -2 -32 5 -44 18 -41 45 -11 208
42 239 32 19 70 13 87 -14z m-684 1 c0 -7 -3 -28 -7 -47 -5 -28 -7 -30 -14
-14 -13 35 -10 75 6 75 8 0 15 -6 15 -14z m-470 -66 c14 -26 30 -26 37 1 4 12
11 18 20 15 8 -3 19 -6 24 -6 5 0 9 -4 9 -10 0 -5 -8 -10 -19 -10 -22 0 -36
-52 -25 -95 7 -29 -10 -55 -37 -55 -10 0 -31 19 -49 45 -33 48 -33 66 -2 113
18 27 28 28 42 2z m-2486 -33 c34 -25 88 -43 156 -52 25 -3 90 -17 145 -31
201 -51 287 -67 585 -109 63 -9 167 -27 230 -40 63 -13 133 -26 155 -30 22 -3
78 -12 125 -20 47 -8 117 -15 155 -16 39 -1 78 -6 89 -11 13 -7 25 -6 41 2 26
14 311 7 440 -10 44 -6 159 -14 255 -17 418 -12 632 -22 724 -33 141 -16 620
-6 881 19 116 11 302 27 414 36 202 16 387 47 464 80 41 17 49 7 24 -30 -7
-11 -23 -47 -36 -80 -13 -33 -47 -114 -76 -180 -29 -66 -59 -136 -66 -155 -24
-61 -164 -332 -211 -410 -25 -41 -58 -97 -73 -125 -24 -43 -59 -97 -137 -213
-39 -59 -152 -157 -200 -175 -24 -9 -23 -28 7 -89 14 -29 23 -60 20 -69 -10
-29 -81 -87 -122 -98 -55 -16 -168 -13 -210 4 -19 8 -43 15 -52 15 -20 0 -51
49 -52 82 0 32 15 99 30 126 17 33 -9 40 -52 13 -19 -11 -66 -25 -105 -31 -40
-5 -91 -14 -115 -19 -23 -5 -141 -15 -262 -21 -121 -6 -252 -13 -291 -15 -218
-12 -762 3 -854 23 -25 6 -101 13 -170 17 -69 3 -152 12 -185 20 -33 7 -98 16
-145 20 -47 3 -150 13 -228 22 -160 18 -170 15 -147 -40 17 -41 1 -97 -39
-136 -44 -42 -117 -61 -242 -61 -92 0 -102 2 -121 23 -32 34 -40 57 -47 127
-9 82 3 115 49 137 19 9 35 20 35 24 0 5 -21 17 -47 29 -89 39 -264 205 -338
320 -53 82 -82 141 -157 315 -33 77 -68 159 -79 182 -10 23 -19 44 -19 47 0 3
-15 37 -34 75 -18 38 -46 123 -61 188 -15 65 -36 145 -46 178 -17 53 -49 187
-49 208 0 12 12 8 44 -16z"/>
<path d="M1685 5581 c-26 -11 -60 -49 -52 -58 4 -3 18 4 32 17 18 17 36 23 70
23 28 0 44 4 42 11 -4 14 -65 18 -92 7z"/>
<path d="M1703 5505 c-35 -15 -84 -96 -82 -137 0 -16 9 -4 28 37 15 33 34 65
42 71 51 42 110 19 189 -72 58 -66 90 -81 90 -41 0 25 -45 97 -60 97 -14 0
-13 -4 11 -44 30 -52 11 -44 -36 14 -38 47 -104 90 -136 90 -8 -1 -28 -7 -46
-15z"/>
<path d="M2245 5469 c-15 -23 -33 -124 -25 -133 5 -5 11 3 15 20 5 27 21 81
32 112 6 15 -13 16 -22 1z"/>
<path d="M1746 5438 c-11 -6 -15 -16 -11 -29 4 -13 2 -19 -9 -19 -12 0 -16
-11 -16 -48 0 -63 23 -87 75 -78 49 9 69 43 61 100 -9 61 -58 97 -100 74z"/>
<path d="M2516 5282 c-13 -21 -79 -43 -118 -40 -20 1 -41 -1 -45 -6 -4 -4 27
-6 69 -4 79 3 116 20 106 49 -3 10 -6 10 -12 1z"/>
<path d="M1640 5261 c0 -15 70 -51 100 -51 30 0 139 26 148 35 13 12 -10 17
-35 7 -61 -24 -118 -25 -161 -3 -46 24 -52 25 -52 12z"/>
<path d="M1260 5154 c0 -4 5 -22 12 -40 10 -28 9 -35 -10 -59 -12 -15 -22 -35
-22 -44 0 -23 26 -58 36 -48 4 4 2 13 -4 19 -18 18 -14 36 14 64 24 25 24 28
11 67 -11 35 -37 63 -37 41z"/>
<path d="M1910 4940 c0 -18 6 -33 15 -37 21 -7 32 4 17 19 -7 7 -12 20 -12 30
0 10 -4 18 -10 18 -5 0 -10 -14 -10 -30z"/>
<path d="M1805 4940 c3 -5 8 -10 11 -10 2 0 4 5 4 10 0 6 -5 10 -11 10 -5 0
-7 -4 -4 -10z"/>
<path d="M1998 4924 c-3 -3 13 -25 37 -50 52 -53 95 -59 142 -20 15 12 38 28
51 35 22 12 31 41 12 41 -5 0 -10 -4 -10 -10 0 -5 -9 -10 -20 -10 -11 0 -20 5
-20 10 0 6 -4 10 -10 10 -5 0 -10 -11 -10 -24 0 -31 -24 -56 -54 -56 -26 0
-46 15 -69 53 -16 25 -36 34 -49 21z"/>
<path d="M2365 4760 c-3 -9 -17 -17 -30 -18 -14 -1 -43 -11 -64 -21 -32 -17
-63 -20 -222 -23 -101 -2 -221 1 -266 6 -63 7 -83 6 -83 -3 0 -19 25 -64 62
-109 18 -23 44 -56 57 -73 14 -18 43 -40 65 -50 50 -21 192 -34 272 -24 51 6
64 12 97 46 20 22 37 47 37 56 0 20 77 175 92 184 7 5 7 12 0 25 -9 16 -12 17
-17 4z m-55 -78 c0 -27 -50 -145 -74 -175 -32 -40 -117 -53 -239 -38 -51 7
-102 19 -115 27 -29 19 -62 52 -62 62 0 4 35 8 78 9 56 1 82 -3 94 -13 11 -11
18 -12 23 -4 4 7 33 11 73 10 97 -2 98 -2 84 12 -7 7 -73 12 -194 15 l-183 3
-23 30 c-39 50 -25 64 56 55 37 -4 117 -6 177 -4 61 1 134 2 163 1 36 -1 66 5
90 17 40 21 52 19 52 -7z"/>
<path d="M1915 4380 c-10 -15 41 -30 103 -30 31 -1 75 -4 97 -8 47 -9 72 -6
78 11 3 9 -26 13 -109 15 -62 1 -124 6 -138 12 -16 6 -27 6 -31 0z"/>
<path d="M1975 4303 c-8 -8 -15 -30 -15 -50 0 -26 5 -36 20 -40 11 -3 20 -12
20 -19 0 -8 7 -14 15 -14 8 0 15 7 15 16 0 12 6 15 23 10 21 -5 25 -1 36 35 7
24 9 45 4 50 -5 5 -30 13 -56 18 -38 7 -51 5 -62 -6z"/>
<path d="M3452 3540 c-13 -11 -40 -22 -60 -26 -116 -21 -152 -92 -168 -336 -3
-54 -10 -98 -15 -98 -5 0 -9 -16 -9 -35 0 -19 5 -35 10 -35 6 0 10 6 10 14 0
8 7 17 16 20 13 5 15 15 11 41 -3 19 -3 59 0 90 l6 56 21 -19 c56 -51 106 -55
164 -12 38 27 42 34 42 73 0 25 -8 56 -20 75 l-21 33 28 -3 c21 -2 33 -12 45
-38 20 -41 12 -90 -23 -134 -12 -15 -18 -30 -14 -34 11 -11 51 45 64 89 12 40
1 112 -19 124 -15 9 -118 35 -140 35 -27 0 -81 -35 -97 -62 -12 -21 -13 -20
-7 17 8 50 22 62 87 70 90 12 167 71 134 104 -14 14 -18 14 -45 -9z m-37 -150
c-3 -5 -12 -10 -20 -10 -7 0 -15 -10 -17 -22 -2 -18 -10 -23 -33 -23 -30 0
-30 0 -30 -58 0 -59 -3 -65 -23 -45 -34 34 5 137 58 157 34 13 73 13 65 1z"/>
<path d="M3590 3186 c0 -7 -10 -16 -22 -19 -45 -12 -3 -22 93 -22 64 0 98 3
96 10 -2 5 -15 11 -30 13 -14 2 -31 10 -37 18 -17 19 -100 19 -100 0z"/>
<path d="M3381 3091 c-17 -16 -29 -35 -26 -43 4 -11 16 -5 45 22 22 20 40 40
40 43 0 16 -30 5 -59 -22z"/>
<path d="M3926 2973 c9 -35 12 -39 24 -27 13 13 1 54 -16 54 -11 0 -13 -7 -8
-27z"/>
<path d="M3609 2608 c-1 -12 -2 -96 -3 -185 -1 -123 2 -163 11 -163 21 0 25
41 20 206 -3 107 -8 159 -15 162 -7 2 -13 -7 -13 -20z"/>
<path d="M3426 1988 c-31 -108 -34 -149 -12 -167 17 -14 38 -7 53 18 9 14 8
27 -2 57 -8 22 -14 54 -15 72 0 31 -17 45 -24 20z m25 -111 c7 -28 3 -37 -18
-37 -8 0 -13 13 -13 36 0 41 20 43 31 1z"/>
<path d="M3536 1658 c-27 -60 -32 -120 -12 -138 15 -11 20 -11 37 7 18 18 19
28 13 96 -4 43 -10 77 -13 77 -4 0 -15 -19 -25 -42z m20 -105 c-11 -29 -27 1
-19 37 l6 35 10 -28 c5 -15 6 -35 3 -44z"/>
<path d="M3 3115 c1 -30 5 -34 35 -40 19 -3 36 -4 39 -1 11 11 -6 34 -40 54
l-35 20 1 -33z"/>
<path d="M194 2996 c-49 -22 -86 -86 -49 -86 8 0 15 6 15 13 0 19 30 45 66 57
23 8 39 7 69 -6 l39 -16 -29 -15 c-17 -9 -49 -33 -72 -54 -24 -22 -45 -39 -48
-39 -3 0 -17 7 -30 16 -23 15 -25 15 -25 1 0 -19 30 -37 59 -37 11 0 43 20 70
45 28 24 69 50 91 56 66 20 55 34 -51 68 -45 14 -66 14 -105 -3z"/>
<path d="M5815 2990 c-22 -3 -62 -18 -90 -32 -57 -29 -143 -103 -133 -113 3
-3 23 -2 45 4 57 16 106 13 163 -9 28 -11 61 -20 75 -20 33 0 85 46 85 76 0
37 -27 82 -52 89 -41 12 -52 12 -93 5z m97 -37 c22 -20 24 -76 2 -94 -22 -18
-74 -15 -115 7 -20 10 -54 17 -82 17 -63 -1 -57 13 22 55 72 37 142 43 173 15z"/>
<path d="M2 1900 l0 -365 19 60 c32 103 42 200 34 345 -6 127 -25 254 -45 303
-5 13 -9 -121 -8 -343z"/>
<path d="M5655 2227 c-24 -34 -18 -53 31 -94 29 -24 56 -60 75 -99 36 -77 87
-124 133 -124 46 0 66 26 67 88 1 44 -3 55 -37 97 -47 56 -119 105 -196 133
l-57 21 -16 -22z m113 -43 c61 -30 147 -105 168 -146 12 -23 13 -36 4 -63 -27
-82 -106 -46 -160 72 -17 38 -45 78 -70 100 -71 64 -38 85 58 37z"/>
<path d="M863 834 c44 -45 51 -63 42 -119 -8 -57 -32 -85 -94 -115 -28 -13
-51 -27 -51 -32 0 -20 107 29 139 63 32 34 45 99 30 148 -13 43 -58 91 -86 91
-11 0 -5 -12 20 -36z"/>
<path d="M5693 782 c20 -21 37 -42 37 -48 0 -14 -119 -47 -265 -74 -146 -27
-185 -43 -185 -76 0 -26 43 -59 92 -69 32 -7 58 -39 58 -71 0 -39 -37 -71
-121 -103 -77 -30 -87 -31 -227 -31 -81 1 -244 5 -362 9 -118 5 -302 6 -409 2
-186 -7 -194 -8 -212 -30 -11 -13 -19 -34 -19 -47 0 -28 -15 -37 -105 -59 -56
-14 -89 -16 -170 -10 -55 4 -282 9 -505 10 -528 4 -752 13 -875 34 -37 6 -40
9 -37 36 10 98 9 98 -28 108 -19 5 -73 6 -120 2 -47 -3 -236 -10 -420 -15
-339 -8 -381 -12 -401 -36 -15 -18 -3 -52 22 -59 10 -4 19 -10 19 -15 0 -9
-178 -23 -315 -24 -102 -1 -125 11 -125 65 0 42 -33 94 -68 107 -83 31 -97 33
-237 22 -77 -7 -269 -10 -428 -8 -205 2 -287 0 -287 -8 0 -19 395 -27 635 -14
197 11 213 11 260 -7 30 -11 54 -28 61 -42 7 -12 17 -28 23 -34 6 -6 11 -24
11 -39 0 -33 39 -78 67 -78 63 -1 420 35 430 43 16 12 0 43 -27 52 -11 3 -20
12 -20 20 0 26 127 39 430 42 162 2 336 4 386 5 115 4 129 -5 106 -63 -15 -38
-14 -41 4 -58 37 -35 318 -50 1019 -53 612 -3 631 -2 670 17 29 15 41 28 45
49 3 16 18 38 33 50 28 20 38 21 350 20 177 -1 413 -5 525 -9 177 -7 210 -5
260 9 132 40 182 78 182 141 0 43 -24 69 -82 90 -58 21 -75 39 -59 59 14 16
63 30 191 51 52 9 114 21 137 26 23 5 55 9 71 9 36 0 66 31 57 59 -7 25 -73
81 -94 81 -9 0 -1 -15 22 -38z"/>
<path d="M4860 707 c-49 -11 -55 -15 -55 -37 0 -20 10 -30 50 -48 128 -60 140
-67 143 -88 2 -15 -4 -23 -20 -28 -22 -6 -400 -25 -520 -26 -37 0 -58 -4 -58
-12 0 -8 44 -9 168 -4 443 17 484 25 452 84 -11 18 -41 38 -99 63 -99 44 -112
54 -80 65 21 7 253 8 303 1 10 -1 21 3 23 10 8 23 -223 38 -307 20z"/>
<path d="M1960 651 c-8 -6 -30 -8 -47 -5 -19 4 -33 2 -33 -3 0 -6 51 -10 128
-9 116 1 134 -1 180 -23 51 -24 73 -48 49 -56 -6 -2 -70 -6 -142 -8 -71 -3
-141 -10 -155 -15 -18 -8 15 -9 120 -6 198 7 210 9 210 39 0 29 -30 51 -96 71
-63 19 -195 28 -214 15z"/>
<path d="M2400 614 c0 -6 5 -15 11 -21 19 -19 -9 -53 -65 -78 -73 -32 -210
-58 -268 -51 -26 3 -70 9 -98 12 -32 4 -50 3 -50 -4 0 -15 139 -26 240 -19
136 10 270 68 270 117 0 9 -9 25 -20 35 -11 10 -20 14 -20 9z"/>
<path d="M5105 600 c11 -5 36 -23 55 -39 28 -24 33 -33 25 -47 -37 -59 -225
-101 -502 -111 -147 -5 -183 -9 -183 -20 0 -12 18 -13 98 -8 53 4 126 11 162
16 36 5 91 9 122 9 76 0 223 35 274 65 57 33 68 49 54 74 -14 28 -80 71 -105
70 -20 0 -20 0 0 -9z"/>
<path d="M2938 591 c-134 -12 -71 -17 205 -17 229 1 296 -2 357 -16 79 -17
244 -33 200 -18 -14 4 -40 8 -58 9 -18 1 -70 7 -115 15 -45 8 -112 20 -148 25
-69 11 -324 12 -441 2z"/>
<path d="M285 555 l-30 -15 40 6 c22 2 73 6 113 7 39 1 72 5 72 9 0 14 -164 8
-195 -7z"/>
<path d="M2900 529 c0 -12 249 -9 256 3 3 5 -54 8 -125 8 -87 0 -131 -4 -131
-11z"/>
<path d="M3233 497 c-55 -38 -34 -53 25 -17 31 19 41 19 196 10 91 -5 177 -15
192 -20 18 -7 31 -7 37 -1 14 14 2 17 -133 30 -244 23 -282 23 -317 -2z"/>
</g>
</svg>
